<svg aria-hidden="true"  xmlns="http://www.w3.org/2000/svg" style="display: none;">
  <symbol id="download">
    <g>
      <path d="M13.3,6.8l-1.8,1.8V0.4c0-0.2-0.2-0.4-0.4-0.4H8.9C8.7,0,8.5,0.2,8.5,0.4v8.1L6.7,6.8c-0.2-0.2-0.4-0.2-0.6,0
			L4.6,8.3c-0.2,0.2-0.2,0.4,0,0.6l3.3,3.3L9.7,14c0.2,0.2,0.4,0.2,0.6,0l1.8-1.8l3.3-3.3c0.2-0.2,0.2-0.4,0-0.6l-1.6-1.6
			C13.7,6.6,13.4,6.6,13.3,6.8z"/>
		<path d="M15,14.4V17H5v-2.6C5,14.2,4.8,14,4.6,14H2.4C2.2,14,2,14.2,2,14.4V17v2.6C2,19.8,2.2,20,2.4,20H5h10h2.6
			c0.2,0,0.4-0.2,0.4-0.4V17v-2.6c0-0.2-0.2-0.4-0.4-0.4h-2.2C15.2,14,15,14.2,15,14.4z"/>
    </g>
  </symbol>

  <symbol id="link">
    <path d="M15.7,1H4.4C4.2,1,4.1,1.2,4.1,1.4v2.5c0,0.2,0.2,0.4,0.4,0.4h9L1.2,16.6C1,16.7,1,17,1.2,17.1L3,18.9
		c0.1,0.1,0.4,0.1,0.5,0L15.7,6.7v8.8c0,0.2,0.2,0.4,0.4,0.4h2.5c0.2,0,0.4-0.2,0.4-0.4V4.3V1.4c0-0.2-0.2-0.4-0.4-0.4H15.7z"/>
  </symbol>

  <symbol id="logo">
    <path d="M12.5,6.9l-0.9,0.6c0.7,0.8,1.2,2.1,1.3,3.5H9.6V8.4l3.2-2.2l0.1-0.1l0.2-0.1l0,0c0.2-0.2,0.4-0.5,0.4-0.8
		c0-0.2-0.1-0.4-0.2-0.6l-1.2-1.7l0-0.1L12,2.7c0,0,0,0,0,0c0,0,0,0,0-0.1c0,0,0-0.1-0.1-0.1c0-0.1-0.1-0.1-0.1-0.2
		c-0.2-0.3-0.3-0.6-0.3-0.9c0,0,0,0,0,0c0-0.1,0-0.1,0-0.2l-0.3,0.2l-0.1,0l0,0L9.9,2.4v0l0,0L9.6,2.6V0.5l0.2-0.2L9.5,0L9.2,0.3
		l0.2,0.2v2.3l-1.5,1V1C7.6,1.8,7.1,2.4,6.5,2.7c-0.1,0-0.1,0.1-0.2,0.1C6,3,5.7,3.1,5.4,3.1c0,0,0,0,0,0v0c0,0,0,0,0,0
		C5.9,3.5,6.3,4,6.3,4.6v9.7c0,0.6-0.3,1.1-0.9,1.5l0.9,1.3l0.4,0.6c0.2-0.7,0.6-1.3,1.2-1.7V9.6l1.5-1v8.6c-0.3-0.1-0.7-0.2-1-0.4
		c-0.1-0.1-0.2-0.2-0.3-0.3c-0.1,0.1-0.2,0.2-0.3,0.3C7.8,16.9,8,16.9,8.1,17c0,0,0,0-0.1,0.1c-0.2,0.3-0.4,0.6-0.5,0.9
		c0.6-0.2,1.2-0.4,1.9-0.5v2.1l-0.1,0.1L9.2,20h0.3h0.3l-0.2-0.3l-0.1-0.1v-2.2c0.2,0,0.4,0,0.6,0l0,0c0.7,0,1.4-0.2,1.9-0.4
		c0.1,0,0.1-0.1,0.2-0.1l0,0c0.6-0.3,1.2-1,1.6-1.8c0.4-0.9,0.7-2,0.7-3.2C14.6,9.6,13.8,7.7,12.5,6.9z M9.9,2.6
		C10,3,10.1,3.4,10.4,3.8l0.1,0.2l1.1,1.6l0,0c0,0,0,0,0,0l0,0c0.1,0.2,0.2,0.3,0.2,0.6c0,0.3-0.2,0.6-0.4,0.8l0,0L9.6,8.1V6.3
		c0.1,0,0.1-0.1,0.1-0.2S9.7,5.9,9.6,5.9v-3L9.9,2.6z M7.9,9.3V4l1.5-1v2.9C9.3,5.9,9.3,6,9.3,6.1s0.1,0.2,0.1,0.2v2L7.9,9.3z
		 M12.9,11.3c0,0.2,0,0.4,0,0.6c0,0.3,0,0.6,0,0.9H9.6v-1.5L12.9,11.3L12.9,11.3z M11.6,16.2c-0.1,0.1-0.2,0.2-0.3,0.3
		c-0.2,0.2-0.5,0.4-0.8,0.5c-0.1,0-0.2,0.1-0.3,0.1c-0.2,0-0.3,0.1-0.5,0.1c0,0-0.1,0-0.1,0v-4.2h3.3c-0.1,0.8-0.3,1.5-0.6,2.1
		C12.1,15.5,11.9,15.9,11.6,16.2z"/>
  </symbol>

	<symbol id="chevron-left">
		<path d="M15.1,2.2l-2.2-2.2c0,0-0.1,0-0.1,0L5.2,7.7L2.9,9.9c0,0,0,0.1,0,0.1l2.2,2.2l7.6,7.6c0,0,0.1,0,0.1,0l2.2-2.2
		c0,0,0-0.1,0-0.1L7.5,10l7.6-7.6C15.1,2.3,15.1,2.3,15.1,2.2z"/>
	</symbol>

	<symbol id="chevron-right">
		<path d="M4.9,2.2l2.2-2.2c0,0,0.1,0,0.1,0l7.6,7.6l2.2,2.2c0,0,0,0.1,0,0.1l-2.2,2.2l-7.6,7.6c0,0-0.1,0-0.1,0l-2.2-2.2
	c0,0,0-0.1,0-0.1l7.6-7.6L4.9,2.4C4.9,2.3,4.9,2.3,4.9,2.2z"/>
	</symbol>
</svg>